<svg width="18" height="20" viewBox="0 0 18 20" fill="none" xmlns="http://www.w3.org/2000/svg">
<path d="M16.5 4.16669C16.5 5.5474 13.1421 6.66669 9 6.66669C4.85786 6.66669 1.5 5.5474 1.5 4.16669M16.5 4.16669C16.5 2.78598 13.1421 1.66669 9 1.66669C4.85786 1.66669 1.5 2.78598 1.5 4.16669M16.5 4.16669V15.8334C16.5 17.2167 13.1667 18.3334 9 18.3334C4.83333 18.3334 1.5 17.2167 1.5 15.8334V4.16669M16.5 10C16.5 11.3834 13.1667 12.5 9 12.5C4.83333 12.5 1.5 11.3834 1.5 10" stroke="#526179" stroke-width="1.5" stroke-linecap="round" stroke-linejoin="round"/>
</svg>
