<svg width="20" height="20" viewBox="0 0 20 20" fill="none" xmlns="http://www.w3.org/2000/svg">
<path d="M9.99999 5.83332H6.24999C5.69746 5.83332 5.16755 5.61383 4.77685 5.22313C4.38615 4.83243 4.16666 4.30252 4.16666 3.74999C4.16666 3.19746 4.38615 2.66755 4.77685 2.27685C5.16755 1.88615 5.69746 1.66666 6.24999 1.66666C9.16666 1.66666 9.99999 5.83332 9.99999 5.83332ZM9.99999 5.83332H13.75C14.3025 5.83332 14.8324 5.61383 15.2231 5.22313C15.6138 4.83243 15.8333 4.30252 15.8333 3.74999C15.8333 3.19746 15.6138 2.66755 15.2231 2.27685C14.8324 1.88615 14.3025 1.66666 13.75 1.66666C10.8333 1.66666 9.99999 5.83332 9.99999 5.83332ZM9.99999 5.83332L9.99999 18.3333M1.66666 11.6667H18.3333M1.66666 8.49999L1.66666 15.6667C1.66666 16.6001 1.66666 17.0668 1.84831 17.4233C2.0081 17.7369 2.26307 17.9919 2.57667 18.1517C2.93319 18.3333 3.3999 18.3333 4.33332 18.3333L15.6667 18.3333C16.6001 18.3333 17.0668 18.3333 17.4233 18.1517C17.7369 17.9919 17.9919 17.7369 18.1517 17.4233C18.3333 17.0668 18.3333 16.6001 18.3333 15.6667V8.49999C18.3333 7.56657 18.3333 7.09986 18.1517 6.74334C17.9919 6.42974 17.7369 6.17477 17.4233 6.01498C17.0668 5.83333 16.6001 5.83333 15.6667 5.83332L4.33332 5.83332C3.3999 5.83332 2.93319 5.83332 2.57667 6.01498C2.26307 6.17477 2.0081 6.42974 1.84831 6.74334C1.66666 7.09986 1.66666 7.56657 1.66666 8.49999Z" stroke="#171F2D" stroke-width="2" stroke-linecap="round" stroke-linejoin="round"/>
</svg>
